<svg xmlns="http://www.w3.org/2000/svg"  viewBox="0 0 128 128" width="64px" height="64px"><circle cx="114" cy="14" r="10" fill="#fff"/><path fill="#444b54" d="M114,1c-4.1,0-7.8,1.9-10.3,5.1c-1.8,2.3-2.7,5-2.7,7.9c0,3,1,5.8,2.8,8l-16,20.1c-3.8,4.8-3.8,11.4,0,16.2 l12.1,15.1c2,2.6,2,6.2,0,8.7l-15.9,20c-1,1.3-0.8,3.2,0.5,4.2c0.6,0.4,1.2,0.7,1.9,0.7c0.9,0,1.8-0.4,2.3-1.1l15.9-20 c3.8-4.8,3.8-11.4,0-16.2L92.5,54.6c-2-2.6-2-6.2,0-8.7l16-20.1c1.7,0.8,3.5,1.3,5.5,1.3c7.2,0,13-5.8,13-13S121.2,1,114,1z M114,21c-3.9,0-7-3.1-7-7c0-1.6,0.5-3,1.4-4.3C109.8,8,111.8,7,114,7c3.9,0,7,3.1,7,7S117.9,21,114,21z"/><path fill="#444b54" d="M70.3,127c-0.6,0-1.3-0.2-1.8-0.6c-1.3-1-1.5-2.9-0.5-4.2l6.2-8c1-1.3,2.9-1.5,4.2-0.5c1.3,1,1.5,2.9,0.5,4.2 l-6.2,8C72,126.6,71.1,127,70.3,127z"/><path fill="#444b54" d="M76.5,42.4c-0.9,0-1.8-0.4-2.3-1.1l-8.5-10.7c-1-1.3-0.8-3.2,0.5-4.2c1.3-1,3.2-0.8,4.2,0.5l8.5,10.7 c1,1.3,0.8,3.2-0.5,4.2C77.8,42.1,77.2,42.4,76.5,42.4z"/><path fill="#444b54" d="M124,101.9c-0.9,0-1.8-0.4-2.3-1.1l-8.2-10.3c-1-1.3-0.8-3.2,0.5-4.2c1.3-1,3.2-0.8,4.2,0.5l8.2,10.3 c1,1.3,0.8,3.2-0.5,4.2C125.3,101.7,124.7,101.9,124,101.9z"/><path fill="#fcca3d" d="M4,99V69l10-16.5L4,36V19h30c11,0,20,9,20,20v60H4z"/><path fill="#ef7d00" d="M54,99H9V87c0-1.7,1.3-3,3-3l9,0c1.7,0,3-1.3,3-3V69l0,0V31c0-1.7,1.3-3,3-3h22c2.8,0,5,2.2,5,5V99z"/><path fill="#fff" d="M4,69V36h20c5.5,0,10,4.5,10,10v13c0,5.5-4.5,10-10,10H4z"/><path fill="#e4e4e7" d="M14,69V48c0-1.7,1.3-3,3-3h17v14c0,5.5-4.5,10-10,10H14z"/><path fill="#444b54" d="M24,72H4c-1.7,0-3-1.3-3-3s1.3-3,3-3h20c3.9,0,7-3.1,7-7V46c0-3.9-3.1-7-7-7H4c-1.7,0-3-1.3-3-3s1.3-3,3-3h20	c7.2,0,13,5.8,13,13v13C37,66.2,31.2,72,24,72z"/><path fill="#444b54" d="M54,102H4c-1.7,0-3-1.3-3-3s1.3-3,3-3h47V39c0-9.4-7.6-17-17-17H4c-1.7,0-3-1.3-3-3s1.3-3,3-3h30	c12.7,0,23,10.3,23,23v60C57,100.7,55.7,102,54,102z"/><circle cx="34" cy="84" r="5" fill="#fff"/><path fill="#444b54" d="M45.5,122.4l-9-14c-0.9-1.4-2.8-1.8-4.1-0.9c-1.4,0.9-1.8,2.8-0.9,4.1L33,114H4c-1.7,0-3,1.3-3,3s1.3,3,3,3	h32.9l3.6,5.6C41,126.5,42,127,43,127c0.6,0,1.1-0.2,1.6-0.5C46,125.6,46.4,123.8,45.5,122.4z"/></svg>