<?xml version="1.0" encoding="utf-8"?>
<!-- Generator: Adobe Illustrator 28.0.0, SVG Export Plug-In . SVG Version: 6.00 Build 0)  -->
<svg version="1.1" id="Capa_1" xmlns="http://www.w3.org/2000/svg" xmlns:xlink="http://www.w3.org/1999/xlink" x="0px" y="0px"
	 viewBox="0 0 64 64" style="enable-background:new 0 0 64 64;" xml:space="preserve">
<path fill="none"
	  stroke="#CD6A03"
	  stroke-width="6"
	  strokeLinecap="round"
	  stroke-miterlimit="10"
	  d="M39.7,39.8h22"/>
	<path fill="none"
		  stroke="#BE0811"
		  stroke-width="6"
		  stroke-miterlimit="10"
		  strokeLinecap="round"
		  d="M2.2,39.8h37.5 M39.7,39.8l21.5,21.5"/>
	<path fill="none"
		  stroke="#76A9DA"
		  stroke-width="6"
		  stroke-miterlimit="10"
		  strokeLinecap="round"
		  d="M20.1,2.4v59.2"/>
	<path fill="none"
		  stroke="#4F8E3A"
		  stroke-width="6"
		  stroke-miterlimit="10"
		  strokeLinecap="round"
		  d="M2.2,22.9h17.9 M20.1,22.9L41.1,2"/>
	<path fill="#FDED00"
		  stroke="#FDED00"
		  stroke-width="5"
		  stroke-miterlimit="10"
		  strokeLinecap="round"
		  d="M20.1,21.3c0.9,0,1.6,0.7,1.6,1.6s-0.7,1.6-1.6,1.6s-1.6-0.7-1.6-1.6S19.2,21.3,20.1,21.3z M39.7,38.2
	c0.9,0,1.6,0.7,1.6,1.6s-0.7,1.6-1.6,1.6s-1.6-0.7-1.6-1.6S38.8,38.2,39.7,38.2z M20.1,38.2c0.9,0,1.6,0.7,1.6,1.6s-0.7,1.6-1.6,1.6
	s-1.6-0.7-1.6-1.6S19.2,38.2,20.1,38.2z"/>
</svg>
